<svg width="120" height="33" viewBox="0 0 120 33" fill="none" xmlns="http://www.w3.org/2000/svg">
<path d="M16.056 17.984C16.056 19.0933 15.7893 20.128 15.256 21.088C14.7227 22.0267 13.912 22.784 12.824 23.36C11.736 23.936 10.4027 24.224 8.824 24.224C7.288 24.224 5.912 23.9573 4.696 23.424C3.48 22.8693 2.50933 22.1013 1.784 21.12C1.05867 20.1387 0.642667 19.008 0.536 17.728H4.44C4.54667 18.7093 4.96267 19.552 5.688 20.256C6.43467 20.96 7.42667 21.312 8.664 21.312C9.77333 21.312 10.6267 21.0133 11.224 20.416C11.8427 19.8187 12.152 19.0507 12.152 18.112C12.152 17.3013 11.928 16.64 11.48 16.128C11.032 15.5947 10.4773 15.1787 9.816 14.88C9.15467 14.5813 8.248 14.24 7.096 13.856C5.688 13.408 4.536 12.96 3.64 12.512C2.76533 12.064 2.01867 11.4133 1.4 10.56C0.781333 9.70667 0.472 8.58667 0.472 7.2C0.472 5.984 0.770667 4.91733 1.368 4C1.96533 3.08267 2.81867 2.37867 3.928 1.888C5.03733 1.376 6.31733 1.12 7.768 1.12C10.072 1.12 11.896 1.67467 13.24 2.784C14.6053 3.89333 15.384 5.344 15.576 7.136H11.64C11.4907 6.28267 11.0853 5.55733 10.424 4.96C9.784 4.34133 8.89867 4.032 7.768 4.032C6.744 4.032 5.92267 4.29867 5.304 4.832C4.68533 5.344 4.376 6.09067 4.376 7.072C4.376 7.84 4.58933 8.48 5.016 8.992C5.44267 9.48267 5.976 9.87733 6.616 10.176C7.27733 10.4533 8.17333 10.784 9.304 11.168C10.7333 11.616 11.896 12.0747 12.792 12.544C13.7093 12.992 14.4773 13.6533 15.096 14.528C15.736 15.4027 16.056 16.5547 16.056 17.984ZM29.564 6.08C31.612 6.08 33.2547 6.74133 34.492 8.064C35.7293 9.38667 36.348 11.2747 36.348 13.728V24H32.7V14.112C32.7 12.5333 32.2947 11.3173 31.484 10.464C30.6733 9.58933 29.564 9.152 28.156 9.152C26.7053 9.152 25.5427 9.62133 24.668 10.56C23.7933 11.4773 23.356 12.832 23.356 14.624V24H19.708V0.32H23.356V10.24C23.8253 8.91733 24.6147 7.89333 25.724 7.168C26.8333 6.44267 28.1133 6.08 29.564 6.08ZM47.6863 6.144C49.2863 6.144 50.6516 6.53867 51.7823 7.328C52.9129 8.11733 53.7129 9.16267 54.1823 10.464V6.368H57.8303V24H54.1823V19.904C53.7129 21.2053 52.9129 22.2507 51.7823 23.04C50.6516 23.8293 49.2863 24.224 47.6863 24.224C46.1503 24.224 44.7743 23.8613 43.5583 23.136C42.3636 22.4107 41.4249 21.3653 40.7423 20C40.0596 18.6347 39.7183 17.024 39.7183 15.168C39.7183 13.3333 40.0596 11.7333 40.7423 10.368C41.4249 9.00267 42.3636 7.95733 43.5583 7.232C44.7743 6.50667 46.1503 6.144 47.6863 6.144ZM48.8063 9.344C47.1849 9.344 45.8836 9.86667 44.9023 10.912C43.9423 11.936 43.4623 13.3547 43.4623 15.168C43.4623 16.9813 43.9423 18.4107 44.9023 19.456C45.8836 20.48 47.1849 20.992 48.8063 20.992C49.8303 20.992 50.7476 20.7573 51.5583 20.288C52.3689 19.7973 53.0089 19.1147 53.4783 18.24C53.9476 17.3653 54.1823 16.3413 54.1823 15.168C54.1823 14.016 53.9476 13.0027 53.4783 12.128C53.0089 11.232 52.3689 10.5493 51.5583 10.08C50.7476 9.58933 49.8303 9.344 48.8063 9.344ZM64.288 6.368L69.568 19.328L74.464 6.368H78.528L67.872 32.384H63.808L67.616 23.584L60.192 6.368H64.288ZM90.7828 6.08C92.8308 6.08 94.4734 6.74133 95.7108 8.064C96.9481 9.38667 97.5668 11.2747 97.5668 13.728V24H93.9188V14.112C93.9188 12.5333 93.5134 11.3173 92.7028 10.464C91.8921 9.58933 90.7828 9.152 89.3748 9.152C87.9241 9.152 86.7614 9.62133 85.8868 10.56C85.0121 11.4773 84.5748 12.832 84.5748 14.624V24H80.9268V6.368H84.5748V10.24C85.0441 8.91733 85.8334 7.89333 86.9427 7.168C88.0521 6.44267 89.3321 6.08 90.7828 6.08ZM108.905 6.144C110.505 6.144 111.87 6.53867 113.001 7.328C114.132 8.11733 114.932 9.16267 115.401 10.464V6.368H119.049V24H115.401V19.904C114.932 21.2053 114.132 22.2507 113.001 23.04C111.87 23.8293 110.505 24.224 108.905 24.224C107.369 24.224 105.993 23.8613 104.777 23.136C103.582 22.4107 102.644 21.3653 101.961 20C101.278 18.6347 100.937 17.024 100.937 15.168C100.937 13.3333 101.278 11.7333 101.961 10.368C102.644 9.00267 103.582 7.95733 104.777 7.232C105.993 6.50667 107.369 6.144 108.905 6.144ZM110.025 9.344C108.404 9.344 107.102 9.86667 106.121 10.912C105.161 11.936 104.681 13.3547 104.681 15.168C104.681 16.9813 105.161 18.4107 106.121 19.456C107.102 20.48 108.404 20.992 110.025 20.992C111.049 20.992 111.966 20.7573 112.777 20.288C113.588 19.7973 114.228 19.1147 114.697 18.24C115.166 17.3653 115.401 16.3413 115.401 15.168C115.401 14.016 115.166 13.0027 114.697 12.128C114.228 11.232 113.588 10.5493 112.777 10.08C111.966 9.58933 111.049 9.344 110.025 9.344Z" fill="#1F1D2A"/>
</svg>
